<mxfile host="app.diagrams.net" modified="2023-04-11T11:13:21.827Z" agent="Mozilla/5.0 (Macintosh; Intel Mac OS X 10_15_7) AppleWebKit/605.1.15 (KHTML, like Gecko) Version/15.6.1 Safari/605.1.15" version="21.1.5" etag="O_cX8PAqVk0ZGhJ0Ohb9" type="github">
  <diagram name="Page-1" id="6pqI904z9uPsL_bIDxB8">
    <mxGraphModel>
      <root>
        <mxCell id="0" />
        <mxCell id="1" parent="0" />
      </root>
    </mxGraphModel>
  </diagram>
</mxfile>
